PathFileType	4	(X/Y/Z)	s04c0201.trc
DataRate	CameraRate	NumFrames	NumMarkers	Units	OrigDataRate	OrigDataStartFrame	OrigNumFrames
200	200	4	51	mm	200	1500	2000
Frame#	Time	racr			lacr			c7			jug			rlel			rdr			llel			ldr			s2			lic			ric			lasi			rasi			rpsi			lpsi			rgt			lgt			rth1			rth2			rth3			rth4			rlfc			rmfc			rsh1			rsh2			rsh3			rsh4			rlmal			rmmal			rcal			rtoe			rmt5			lth1			lth2			lth4			lth3			llfc			lmfc			lsh1			lsh2			lsh3			lsh4			llmal			lmmal			lcal			ltoe			lmt1			lmt5			SBIKE			LBIKE			RBIKE			
		X1	Y1	Z1	X2	Y2	Z2	X3	Y3	Z3	X4	Y4	Z4	X5	Y5	Z5	X6	Y6	Z6	X7	Y7	Z7	X8	Y8	Z8	X9	Y9	Z9	X10	Y10	Z10	X11	Y11	Z11	X12	Y12	Z12	X13	Y13	Z13	X14	Y14	Z14	X15	Y15	Z15	X16	Y16	Z16	X17	Y17	Z17	X18	Y18	Z18	X19	Y19	Z19	X20	Y20	Z20	X21	Y21	Z21	X22	Y22	Z22	X23	Y23	Z23	X24	Y24	Z24	X25	Y25	Z25	X26	Y26	Z26	X27	Y27	Z27	X28	Y28	Z28	X29	Y29	Z29	X30	Y30	Z30	X31	Y31	Z31	X32	Y32	Z32	X33	Y33	Z33	X34	Y34	Z34	X35	Y35	Z35	X36	Y36	Z36	X37	Y37	Z37	X38	Y38	Z38	X39	Y39	Z39	X40	Y40	Z40	X41	Y41	Z41	X42	Y42	Z42	X43	Y43	Z43	X44	Y44	Z44	X45	Y45	Z45	X46	Y46	Z46	X47	Y47	Z47	X48	Y48	Z48	X49	Y49	Z49	X50	Y50	Z50	X51	Y51	Z51	
1500	7.5000	530.683182	1344.663904	-154.719701	510.900528	1361.308999	-431.730856	493.376192	1422.962783	-293.511225	465.939250	1283.618000	-281.009722	426.921334	1073.252673	5.321676	663.902272	943.172060	-106.549409	455.502030	1113.159693	-583.921843	671.512690	946.356490	-494.458632	-72.740619	1189.281918	-292.276848	80.736157	1211.135133	-449.654739	78.170723	1194.823562	-125.478447	120.307632	1166.719461	-402.234224	124.432593	1148.852267	-170.029727	-41.504358	1232.639435	-249.059205	-45.879192	1239.367349	-323.056832	28.659082	1137.182265	-113.310587	57.075530	1119.803852	-475.164925	129.948913	1005.361964	-87.969410	200.300872	951.373358	-87.359922	235.899342	873.567581	-84.785843	227.327357	972.646089	-103.149921	301.550589	743.191884	-99.269953	290.998398	726.538806	-213.771216	215.946336	644.785460	-81.218675	181.807208	565.566859	-101.789675	109.838941	519.355934	-115.419247	209.878545	549.176399	-122.882538	23.907210	394.507340	-130.574233	56.180487	390.903310	-212.576912	-45.804249	398.893171	-178.008216	200.053820	221.144288	-155.853128	127.650171	238.642294	-105.810892	126.325313	1056.119692	-475.337497	209.845031	1033.592907	-470.694514	227.009067	1064.743227	-461.313544	272.643032	970.907677	-465.852335	394.808183	869.912414	-433.913828	416.183608	846.769014	-323.885854	375.769802	751.740763	-462.467766	368.018471	666.403467	-444.700664	320.819105	591.481580	-448.718948	392.600094	660.376489	-414.199724	266.906608	458.853563	-453.448841	257.569048	456.992148	-365.900621	184.924839	430.928151	-418.071725	485.622254	431.226438	-412.237038	0.000000	0.000000	-0.000000	419.939847	391.407867	-476.936778	-190.427438	933.821584	-290.157587	-18.311240	79.185891	-484.740711	-18.248750	79.365676	-83.936049	
1501	7.5050	529.600897	1344.987111	-154.611323	510.374157	1362.117253	-431.515924	492.485956	1423.265326	-292.572336	465.857197	1283.584554	-280.917025	426.043628	1073.431041	5.249348	662.745401	942.669473	-107.023291	455.346442	1113.853433	-583.207941	671.440744	946.644563	-494.496665	-72.923244	1186.875290	-292.573959	80.411341	1208.735406	-449.993253	78.430902	1193.345480	-126.297222	120.475170	1165.670177	-401.759706	124.090992	1146.751233	-170.822727	-42.335236	1230.459855	-249.208461	-49.775669	1237.655561	-321.510686	29.372777	1136.286278	-112.911824	56.903071	1113.819573	-474.398664	133.268656	1007.171003	-88.926116	204.593340	954.541807	-88.142735	241.761016	877.613798	-84.706176	230.682898	975.697986	-104.389040	308.426265	747.850421	-98.420797	298.068743	730.679848	-212.804641	221.390337	651.176408	-80.444365	186.702145	573.292072	-100.540535	112.232752	528.399898	-114.820802	212.960728	555.721723	-122.287338	23.325327	405.720353	-130.488600	55.666874	401.548886	-212.405128	-46.196041	411.565415	-177.982578	195.926327	228.842160	-155.908993	123.927972	247.789297	-105.734567	125.720386	1049.337986	-474.751868	209.173765	1025.988408	-470.843183	226.915264	1056.941162	-461.864456	271.025343	962.335913	-465.615338	390.645405	859.159438	-434.185777	412.270192	836.385807	-324.304553	372.681800	740.789938	-462.228512	366.783311	655.719090	-444.514757	321.295150	579.862477	-448.035772	391.855581	650.198876	-414.357169	269.218912	446.045342	-453.209971	259.535303	444.535163	-366.579848	188.031615	416.810013	-418.162309	488.533558	422.617907	-412.024917	0.000000	0.000000	-0.000000	423.582016	381.583552	-476.694119	-190.437473	933.818482	-290.156734	-18.284857	79.176399	-484.682305	-18.248872	79.314776	-83.876789	
1502	7.5100	528.517115	1346.036581	-153.553630	509.863827	1362.662729	-431.233264	491.597723	1423.646228	-291.967442	465.762532	1283.536315	-280.807583	425.296411	1073.543388	5.002643	661.785099	942.031493	-107.586391	455.224656	1114.374191	-582.624283	671.534752	946.814777	-494.386576	-73.081671	1184.347242	-292.682914	80.134006	1206.246367	-450.374661	78.081511	1192.096615	-126.007510	120.917711	1164.403120	-401.683126	124.257863	1145.923763	-170.439860	-43.021099	1227.912792	-249.185691	-50.345490	1234.925929	-321.817512	30.237923	1135.172629	-112.671272	56.633746	1108.068542	-473.541875	136.437248	1008.715967	-89.899466	208.738658	957.428134	-88.778749	247.419897	881.346452	-84.651518	234.474146	978.918232	-104.863429	315.072733	752.293859	-97.688159	304.978781	734.646977	-211.983391	226.737211	657.386168	-79.908806	188.684784	579.866411	-100.624018	114.611118	537.231248	-114.460551	216.927282	562.511668	-121.651140	23.048730	416.730935	-130.456776	54.936087	412.562243	-212.271652	-46.354625	423.891889	-177.830080	192.447936	237.015940	-155.851333	120.817398	257.103428	-105.649049	125.379793	1043.198518	-474.682654	208.523318	1018.563706	-470.992723	226.766790	1049.285095	-462.369011	269.402039	954.015599	-465.434896	386.249566	849.181617	-434.725562	408.205409	826.896811	-324.567029	369.648827	730.845763	-462.183922	365.234711	645.453818	-444.710157	320.968573	568.860425	-448.094185	390.605734	640.312542	-414.809366	271.224103	433.616134	-453.023222	264.336515	432.656655	-363.737930	190.617206	402.823123	-417.693440	490.952620	413.689763	-411.792190	0.000000	0.000000	-0.000000	426.639427	371.682097	-476.531866	-190.447443	933.815383	-290.155731	-18.261213	79.199821	-484.670175	-18.234000	79.285262	-83.857346	
1503	7.5150	527.368788	1346.522247	-153.557546	509.153807	1363.045221	-430.840977	490.702976	1424.098680	-291.638895	465.655451	1283.473397	-280.681920	424.893295	1073.656220	4.764974	661.322309	941.695307	-108.119026	455.170499	1114.689957	-582.015651	671.744437	946.888023	-494.131751	-72.845857	1181.820965	-287.436762	79.829738	1203.827115	-450.768232	78.766011	1190.428250	-127.574193	121.580081	1163.079521	-401.978680	123.973745	1143.467624	-172.177210	-43.661372	1225.720449	-249.136353	-47.692776	1231.301107	-323.914482	31.219710	1133.755002	-112.386141	56.249116	1102.685491	-472.634299	139.366633	1009.976448	-90.456200	212.660064	960.005244	-89.054769	252.836530	884.832873	-84.510236	237.980553	982.069276	-104.929556	321.610659	756.563151	-97.123162	311.617161	738.463770	-211.329210	231.797193	663.655988	-79.437993	192.120072	587.010016	-100.249899	117.161577	545.898847	-114.243260	220.030882	569.036757	-121.322289	23.157234	427.694647	-130.547194	55.327065	422.465956	-212.450121	-46.267865	436.222927	-178.044245	189.586920	245.443285	-155.892401	118.326102	266.737453	-105.573339	125.010049	1037.405742	-474.880939	207.748510	1011.356058	-471.187631	226.518616	1041.889681	-462.833972	267.515572	945.891682	-465.362026	381.293410	840.032997	-435.387367	403.886193	818.071188	-324.835526	366.492868	721.091556	-462.234517	363.528370	635.376790	-445.223972	320.251899	558.241911	-448.541883	388.956172	630.560603	-415.271083	272.820827	421.604609	-453.158927	265.898058	419.893882	-362.299733	192.706278	389.632324	-417.855693	492.912279	404.348777	-411.564052	0.000000	0.000000	-0.000000	429.191198	361.508633	-476.254346	-190.457316	933.812346	-290.154547	-18.248427	79.193315	-484.634739	-18.226684	79.283980	-83.821536	
